<svg width="1024" height="1024" viewBox="0 0 1024 1024" xmlns="http://www.w3.org/2000/svg" xmlns:xlink="http://www.w3.org/1999/xlink">
    <path id="Path" fill="#34c759" stroke="none" d="M 300.160858 344.977112 C 297.948883 354.613525 296.369568 365.434082 295.421722 377.440063 C 294.473907 389.446045 294 400.029663 294 409.192139 C 294 446.473022 299.370605 480.278931 310.113007 510.609253 C 320.855408 540.939575 336.257538 566.965088 356.319397 588.686218 C 376.381256 610.407349 400.393188 627.112793 428.355164 638.802368 C 456.315948 650.492065 487.436554 656.337158 521.715759 656.337158 C 545.726501 656.337158 566.341675 653.296387 583.560059 647.214355 C 600.779663 641.132263 615.154602 633.707886 626.686035 624.940491 C 638.218689 616.173096 647.420898 607.682373 654.291382 599.467712 C 661.163147 591.253052 666.25769 585.092163 669.575073 580.985168 L 620.525208 575.298218 C 631.741516 587.145996 640.50885 598.322632 646.827332 608.827515 C 653.145752 619.332336 658.359924 630.193237 662.46759 641.408936 C 666.574036 652.624634 670.839233 665.499634 675.262024 680.032715 C 677.000061 685.403931 679.803284 689.550659 683.67395 692.4729 C 687.544617 695.395142 692.087036 696.856567 697.298889 696.856567 C 706.460815 696.856567 714.202148 693.381042 720.52179 686.430542 C 726.84021 679.47998 730 670.949585 730 660.839294 C 730 653.888794 727.788025 645.911072 723.364075 636.906738 C 718.941284 627.902466 713.372803 618.819336 706.658691 609.65686 C 699.944519 600.494324 693.113098 591.963928 686.163147 584.065552 C 679.212036 576.167236 673.129395 569.848267 667.916382 565.109131 C 652.908752 551.20752 636.993652 540.584229 620.170959 533.238525 C 603.347107 525.892944 586.325378 520.442932 569.105774 516.888611 C 551.88739 513.334229 535.182007 510.372314 518.989624 508.002747 C 502.798401 505.633179 487.831085 502.631531 474.086456 498.998413 C 460.344208 495.365295 448.457306 489.796814 438.425781 482.29303 C 428.394257 474.789246 421.008362 463.928955 416.269226 449.711609 C 415.637756 447.657776 415.993195 446.394226 417.336731 445.920288 C 418.679077 445.446411 419.823578 445.762146 420.772583 446.868164 C 431.671356 459.663757 443.282196 469.102295 455.603912 475.184387 C 467.925629 481.266418 480.760315 485.413147 494.109253 487.624573 C 507.45816 489.835938 521.044006 491.337036 534.865662 492.126709 C 548.688477 492.916382 562.589478 494.219604 576.571045 496.036499 C 590.551453 497.853333 604.413391 501.526184 618.15564 507.054932 C 631.900269 512.58374 645.327393 521.272278 658.43811 533.120117 C 664.282654 538.33313 670.206543 540.149963 676.209839 538.570068 C 682.213135 536.990112 685.768616 533.04126 686.874023 526.72229 C 687.347961 524.036987 687.742493 520.719604 688.057617 516.770142 C 688.373962 512.820679 688.532715 508.397888 688.532715 503.50061 C 688.532715 472.538147 681.897949 445.960022 668.627258 423.764954 C 655.357727 401.569885 636.321838 384.509033 611.520874 372.582458 C 586.71991 360.655884 557.020996 354.692322 522.425476 354.692322 C 506.31366 354.692322 489.371307 356.19281 471.598419 359.194458 C 453.827911 362.196106 437.912781 363.696594 423.852997 363.696594 C 414.374756 363.696594 404.620483 363.222717 394.588959 362.274902 C 384.557434 361.327087 374.604095 358.799316 364.731323 354.692322 C 354.858551 350.585266 345.261841 343.9505 335.941193 334.788025 C 329.306427 328.153259 322.236847 325.902161 314.733643 328.03479 C 307.230438 330.167358 302.372833 335.814636 300.160858 344.977112 Z"/>
    <path id="Ellipse" fill="none" stroke="#34c759" stroke-width="107" stroke-opacity="0.499371" stroke-linecap="round" stroke-linejoin="round" d="M 902 512.5 C 902 296.832825 727.167175 122 511.5 122 C 295.832825 122 121 296.832825 121 512.5 C 121 728.167175 295.832825 903 511.5 903 C 727.167175 903 902 728.167175 902 512.5 Z"/>
    <path id="Ellipse-copy" fill="none" stroke="#34c759" stroke-width="107" stroke-linecap="round" stroke-linejoin="round" d="M 231.167297 784.352966 C 302.140503 857.526001 401.509735 903 511.5 903 C 727.167175 903 902 728.167175 902 512.5 C 902 296.832825 727.167175 122 511.5 122"/>
</svg>
